# xmcd CD database file
#
# Track frame offsets:
#	150
#	20047
#	42679
#	62576
#
# Disc length: 1132 seconds
#
# Revision: 1
# Processed by: cddbd v1.5.2PL0 Copyright (c) Steve Scherf et al.
# Submitted via: CDex 1.70beta2
#
DISCID=34046a04
DTITLE=fripSide - LEVEL5 -Judgelight-
DYEAR=2010
DGENRE=Anime
TTITLE0=LEVEL5 -judgelight-
TTITLE1=memory of snow
TTITLE2=LEVEL5 -judgelight- (instrumental)
TTITLE3=memory of snow (instrumental)
EXTD=YEAR: 2010
EXTT0=
EXTT1=
EXTT2=
EXTT3=
PLAYORDER=
